<svg height="495.398" width="495.398" xmlns="http://www.w3.org/2000/svg"><path d="m487.083 225.514-75.08-75.08v-86.73c0-15.682-12.708-28.4-28.413-28.4-15.67 0-28.377 12.7-28.377 28.4v29.94l-55.913-55.904c-27.64-27.624-75.694-27.575-103.27.05l-187.718 187.724c-11.082 11.104-11.082 29.07 0 40.158 11.087 11.1 29.1 11.1 40.172 0l187.7-187.73c6.115-6.083 16.893-6.083 22.976-.018l187.742 187.746a28.34 28.34 0 0 0 20.08 8.312c7.27 0 14.54-2.764 20.1-8.312 11.086-11.086 11.086-29.053-.001-40.158zm-229.523-93.678c-5.454-5.45-14.285-5.45-19.723 0l-165.125 165.077c-2.607 2.606-4.085 6.164-4.085 9.877v120.4c0 28.253 22.908 51.16 51.16 51.16h81.754v-126.6h92.3v126.6h81.755c28.25 0 51.16-22.907 51.16-51.16v-120.39c0-3.713-1.465-7.27-4.085-9.877z"/></svg>