<svg class="ldi-ccmorm" width="200px"  height="200px"  xmlns="http://www.w3.org/2000/svg" xmlns:xlink="http://www.w3.org/1999/xlink" viewBox="0 0 100 100" preserveAspectRatio="xMidYMid" style="background: none;"><!--?xml version="1.0" encoding="utf-8"?--><!--Generator: Adobe Illustrator 21.0.0, SVG Export Plug-In . SVG Version: 6.00 Build 0)--><svg version="1.1" id="圖層_1" xmlns="http://www.w3.org/2000/svg" xmlns:xlink="http://www.w3.org/1999/xlink" x="0px" y="0px" viewBox="0 0 100 100" style="transform-origin: 50px 50px 0px;" xml:space="preserve"><g style="transform-origin: 50px 50px 0px;"><g style="transform-origin: 50px 50px 0px; transform: scale(0.6);"><g style="transform-origin: 50px 50px 0px;"><g><style type="text/css" class="ld ld-heartbeat" style="transform-origin: 50px 50px 0px; animation-duration: 10s; animation-delay: -10s; animation-direction: normal;">.st0{fill-rule:evenodd;clip-rule:evenodd;fill:#FFDC6C;} .st1{fill:none;stroke:#F8B26A;stroke-width:2.6883;stroke-linecap:round;stroke-miterlimit:10;} .st2{fill:#353035;} .st3{fill:#FFDC6C;} .st4{fill-rule:evenodd;clip-rule:evenodd;fill:#E15B64;} .st5{fill:#F8B26A;} .st6{fill-rule:evenodd;clip-rule:evenodd;fill:#A0C8D7;} .st7{fill-rule:evenodd;clip-rule:evenodd;fill:#B5B5B5;} .st8{fill:#A0C8D7;} .st9{fill-rule:evenodd;clip-rule:evenodd;fill:#F8B26A;} .st10{fill-rule:evenodd;clip-rule:evenodd;fill:#E0E0E0;stroke:#000000;stroke-width:3.8366;stroke-linecap:round;stroke-miterlimit:10;} .st11{fill-rule:evenodd;clip-rule:evenodd;fill:#FFDC6C;stroke:#F47E60;stroke-width:4;stroke-miterlimit:10;} .st12{fill-rule:evenodd;clip-rule:evenodd;fill:#E0E0E0;stroke:#000000;stroke-width:5;stroke-linecap:round;stroke-miterlimit:10;} .st13{fill:#B5B5B5;} .st14{fill-rule:evenodd;clip-rule:evenodd;fill:#E0E0E0;} .st15{fill-rule:evenodd;clip-rule:evenodd;fill:#E0E0E0;stroke:#000000;stroke-width:6.8207;stroke-linecap:round;stroke-miterlimit:10;} .st16{fill:#E0E0E0;} .st17{fill:#E0E0E0;stroke:#FFFFFF;stroke-width:3;stroke-miterlimit:10;} .st18{fill:#77A4BD;} .st19{fill-rule:evenodd;clip-rule:evenodd;fill:#E0E0E0;stroke:#000000;stroke-width:4;stroke-linecap:round;stroke-miterlimit:10;} .st20{fill:#F8B26A;stroke:#000000;stroke-width:3;stroke-miterlimit:10;} .st21{fill:none;stroke:#F8B26A;stroke-width:4.5884;stroke-linecap:round;stroke-miterlimit:10;} .st22{fill:#333333;} .st23{fill:#666666;} .st24{fill:#F47E60;} .st25{fill:#E15B64;} .st26{fill:#C33737;} .st27{fill:none;stroke:#77A4BD;stroke-width:4;stroke-linecap:round;stroke-miterlimit:10;} .st28{fill:none;stroke:#A0C8D7;stroke-width:4;stroke-linecap:round;stroke-miterlimit:10;} .st29{fill:none;stroke:#77A4BD;stroke-width:3.5;stroke-linecap:round;stroke-miterlimit:10;} .st30{fill:none;stroke:#A0C8D7;stroke-width:3.5;stroke-linecap:round;stroke-miterlimit:10;} .st31{fill-rule:evenodd;clip-rule:evenodd;fill:#F5E6C8;} .st32{fill:#E6E6E6;} .st33{fill:none;} .st34{fill:#849B87;} .st35{fill:none;stroke:#C33737;stroke-width:3;stroke-linecap:round;stroke-miterlimit:10;} .st36{fill:#F5E6C8;} .st37{fill:none;stroke:#F8B26A;stroke-width:1.8792;stroke-linecap:round;stroke-miterlimit:10;} .st38{fill:#998675;} .st39{fill:#736357;} .st40{fill-rule:evenodd;clip-rule:evenodd;fill:#80AAF3;} .st41{fill:none;stroke:#A0C8D7;stroke-width:3;stroke-linecap:round;stroke-miterlimit:10;} .st42{fill:none;stroke:#77A4BD;stroke-width:3;stroke-linecap:round;stroke-miterlimit:10;} .st43{fill:none;stroke:#F5E169;stroke-width:4.588;stroke-linecap:round;stroke-miterlimit:10;} .st44{fill:none;stroke:#F8B26A;stroke-width:4.588;stroke-linecap:round;stroke-miterlimit:10;} .st45{fill:none;stroke:#F47E60;stroke-width:4.588;stroke-linecap:round;stroke-miterlimit:10;} .st46{fill:none;stroke:#E15B64;stroke-width:4.588;stroke-linecap:round;stroke-miterlimit:10;} .st47{fill:none;stroke:#E15B64;stroke-width:8;stroke-miterlimit:10;} .st48{fill:none;stroke:#F8B26A;stroke-width:8;stroke-miterlimit:10;} .st49{fill:none;stroke:#ABBD81;stroke-width:8;stroke-miterlimit:10;} .st50{fill:none;stroke:#E15B64;stroke-width:4;stroke-miterlimit:10;} .st51{fill:none;stroke:#F8B26A;stroke-width:4;stroke-miterlimit:10;} .st52{fill:none;stroke:#F5E6C8;stroke-width:4;stroke-miterlimit:10;} .st53{fill:none;stroke:#ABBD81;stroke-width:4;stroke-miterlimit:10;} .st54{fill:none;stroke:#A0C8D7;stroke-width:4;stroke-miterlimit:10;} .st55{fill:none;stroke:#B295E3;stroke-width:4;stroke-miterlimit:10;}</style><g class="ld ld-heartbeat" style="transform-origin: 50px 50px 0px; animation-duration: 10s; animation-delay: -9.23077s; animation-direction: normal;"><path class="st4" d="M82.2,59c-3.3,2.8-13.7,8.5-16.7,11.6c6-6.2,11.9-13.5,11.7-22c-0.1-3.7-2-6.4-3.1-9.8c-0.6-1-1.2-1.9-1.8-2.9 c-2.2,4.4-5.6,8.5-9.1,12.5c3.5-6.7,4.3-14.4,1.7-21.3c-0.5-1.3-1.2-2.6-1.9-3.9C55.7,14.1,49.2,7.5,49.2,7.5s-9.6,10.3-18.3,22.9 c-0.1,0.1-0.1,0.2-0.2,0.4c-1.2,2.4-2,4.9-2.6,7.5c-1.1,5.2-1,10.5,0.3,15.6c0.5,1.9,1.5,7.9,4.2,8.6c-3.1-0.8-5.8-2.2-8.1-4.2 c-1.4-1.2-6.2-5.8-5-7.8c-2,3.3-2,7.2-2,10.8C17.5,81.2,32.1,92,50,92s32.5-10.9,32.5-30.8c0-0.8-0.1-1.5-0.2-2.3 C82.3,59,82.2,59,82.2,59z" fill="#ff5e69" style="fill: rgb(255, 94, 105);"></path></g><g class="ld ld-heartbeat" style="transform-origin: 50px 50px 0px; animation-duration: 10s; animation-delay: -8.46154s; animation-direction: normal;"><path class="st5" d="M64.1,78.6c0-1.8-0.5-4.6-1.4-6.3c0.5,1-1.3,3.7-1.6,4c-0.2,0.3-1.6,2.2-2.9,2.6c1.2-0.4,1.5-3.4,1.7-4.4 c0.5-2.7,0.1-5-0.4-7.6c-0.2-1.3-0.6-2.6-1.1-3.8c0-0.1-0.1-0.1-0.1-0.2c-3.7-6.4-7.9-11.6-7.9-11.6s-2.8,3.3-6,8 c-0.3,0.6-0.6,1.3-0.8,2c-1.2,3.5-0.8,7.4,0.7,10.8c-1.5-2-3-4.1-3.9-6.3c-0.3,0.5-0.5,1-0.8,1.5c-0.5,1.7-1.3,3.1-1.4,5 c-0.1,4.3,2.9,8.4,5.5,11.6c-1.3-1.6-6.2-4.9-7.6-6.3c0,0,0,0-0.1-0.1c0,0.4-0.1,0.8-0.1,1.2c0,6,2.3,10.4,5.7,13 c2.7,0.5,5.5,0.8,8.4,0.8s5.7-0.3,8.4-0.8C61.8,89,64.1,84.6,64.1,78.6z" fill="rgb(248, 178, 106)" style="fill: rgb(248, 178, 106);"></path></g><g class="ld ld-heartbeat" style="transform-origin: 50px 50px 0px; animation-duration: 10s; animation-delay: -7.69231s; animation-direction: normal;"><path class="st36" d="M61.4,83c0.1-1.1,0.3-3.3-0.5-4.6c0.4,0.8-1,2-2.1,2.8c-1.1,0.7-1.8,1-2.9,1.3c1-0.3,1.3-2.7,1.5-3.5 c0.5-2.1,0.5-4.2,0.1-6.3c-0.2-1-0.5-2-0.9-3c0,0,0-0.1-0.1-0.1c-3-5.1-6.3-9.3-6.3-9.3s-2.2,2.7-4.7,6.3c-0.3,0.5-0.5,1-0.7,1.6 c-0.9,2.8-0.6,5.9,0.6,8.6c-1.2-1.6-2.4-3.2-3.1-5c-0.2,0.4-0.4,0.8-0.6,1.2c-0.4,1.4-1.1,2.5-1.1,3.9c-0.1,3.4,2.3,6.7,4.4,9.2 c-1-1.2-4.9-3.9-6.1-5c0,0,0,0-0.1-0.1c0,0.3-0.1,0.6-0.1,0.9c0,4.6,1.6,8,4.1,10c2.3,0.4,4.6,0.6,7.1,0.6s4.8-0.2,7.1-0.6 C59.6,89.8,61.3,84,61.4,83z" fill="rgb(245, 230, 200)" style="fill: rgb(245, 230, 200);"></path></g><metadata xmlns:d="https://loading.io/stock/" class="ld ld-heartbeat" style="transform-origin: 50px 50px 0px; animation-duration: 10s; animation-delay: -6.92308s; animation-direction: normal;">
<d:name class="ld ld-heartbeat" style="transform-origin: 50px 50px 0px; animation-duration: 10s; animation-delay: -6.15385s; animation-direction: normal;">flame</d:name>
<d:tags class="ld ld-heartbeat" style="transform-origin: 50px 50px 0px; animation-duration: 10s; animation-delay: -5.38462s; animation-direction: normal;">candle,camp,fire,cook,burn,ignite,furnace,flame,weather</d:tags>
<d:license class="ld ld-heartbeat" style="transform-origin: 50px 50px 0px; animation-duration: 10s; animation-delay: -4.61538s; animation-direction: normal;">rf</d:license>
<d:slug class="ld ld-heartbeat" style="transform-origin: 50px 50px 0px; animation-duration: 10s; animation-delay: -3.84615s; animation-direction: normal;">ccmorm</d:slug>
</metadata></g></g></g></g><style type="text/css" class="ld ld-heartbeat" style="transform-origin: 50px 50px 0px; animation-duration: 10s; animation-delay: -3.07692s; animation-direction: normal;">@keyframes ld-heartbeat {
  0% {
    -webkit-transform: scale(1.05);
    transform: scale(1.05);
  }
  5% {
    -webkit-transform: scale(1.25);
    transform: scale(1.25);
  }
  39% {
    -webkit-transform: scale(0.9);
    transform: scale(0.9);
  }
  45% {
    -webkit-transform: scale(1.15);
    transform: scale(1.15);
  }
  60% {
    -webkit-transform: scale(1.05);
    transform: scale(1.05);
  }
  100% {
    -webkit-transform: scale(1);
    transform: scale(1);
  }
}
@-webkit-keyframes ld-heartbeat {
  0% {
    -webkit-transform: scale(1.05);
    transform: scale(1.05);
  }
  5% {
    -webkit-transform: scale(1.25);
    transform: scale(1.25);
  }
  39% {
    -webkit-transform: scale(0.9);
    transform: scale(0.9);
  }
  45% {
    -webkit-transform: scale(1.15);
    transform: scale(1.15);
  }
  60% {
    -webkit-transform: scale(1.05);
    transform: scale(1.05);
  }
  100% {
    -webkit-transform: scale(1);
    transform: scale(1);
  }
}
.ld.ld-heartbeat {
  -webkit-animation: ld-heartbeat 0.8s infinite cubic-bezier(0.215, 0.61, 0.355, 1);
  animation: ld-heartbeat 0.8s infinite cubic-bezier(0.215, 0.61, 0.355, 1);
}
</style></svg></svg>